PathFileType	4	(X/Y/Z)	pose_F01_0-95.trc
DataRate	CameraRate	NumFrames	NumMarkers	Units	OrigDataRate	OrigDataStartFrame	OrigNumFrames
30	30	7	21	m	30	83	95
Frame#	Time	CHip			RHip			RKnee			RAnkle			RBigToe			RSmallToe			RHeel			LHip			LKnee			LAnkle			LBigToe			LSmallToe			LHeel			Neck			Nose			RShoulder			RElbow			RWrist			LShoulder			LElbow			LWrist			
		X1	Y1	Z1	X2	Y2	Z2	X3	Y3	Z3	X4	Y4	Z4	X5	Y5	Z5	X6	Y6	Z6	X7	Y7	Z7	X8	Y8	Z8	X9	Y9	Z9	X10	Y10	Z10	X11	Y11	Z11	X12	Y12	Z12	X13	Y13	Z13	X14	Y14	Z14	X15	Y15	Z15	X16	Y16	Z16	X17	Y17	Z17	X18	Y18	Z18	X19	Y19	Z19	X20	Y20	Z20	X21	Y21	Z21	
83	2.7666666666666666	-0.20984129918722363	1.8384323596089132	-0.5065283786750896	-0.2158865632732528	1.835619031022297	-0.44592844626566946	-0.21208787223723535	1.7110864471862703	-0.43340451547319386	-0.20469327871931978	1.587323955862423	-0.4173828203262583	-0.228245363876865	1.55918701055494	-0.3883981766837946	-0.22447888149520445	1.575521952747953	-0.3848994855059351	-0.1998285265369678	1.5811402450895422	-0.4317409661215856	-0.20565381476302563	1.8400099792086788	-0.5677662171118658	-0.2122169410571094	1.7118291118656939	-0.5626417916463763	-0.1802152090236012	1.5871528537834565	-0.6384392862621978	-0.20497106012466787	1.5554253244026586	-0.6098368071973042	-0.19571669394906654	1.5584818399995033	-0.6449376762874185	-0.17301172629903402	1.5770475167977378	-0.6407250814261535	-0.2027241618562309	1.9911879024445387	-0.5390539944897985	-0.2215120049755918	2.054991931877396	-0.5283151802246068	-0.21335289152695522	1.989828994022506	-0.4500556490234858	-0.21982516112022257	1.909487874304427	-0.39047385621269004	-0.2281207729651202	1.8354277953534248	-0.34091188787180327	-0.19065868492406496	1.9929069979183753	-0.6309022929682603	-0.18312575217808458	1.9120548353055125	-0.6630957986523575	-0.2094891120200234	1.836337262483272	-0.6270657869459751
84	2.8	-0.21194845093927756	1.8355199921118541	-0.4949792493969823	-0.21696050932959107	1.833902748457713	-0.4312779049040271	-0.21262808242375186	1.707992391976853	-0.42766013814898846	-0.20161919720206548	1.586634136500156	-0.4161441053829924	-0.228245363876865	1.55918701055494	-0.3883981766837946	-0.22447888149520445	1.575521952747953	-0.3848994855059351	-0.19948340389595934	1.579556412190468	-0.4316310718118257	-0.20511845260988462	1.838535959932546	-0.555222436813858	-0.21053642676056458	1.7111464657367945	-0.538083313608542	-0.19280340758580894	1.5863073382900224	-0.5736755753826275	-0.21890603699995034	1.557755328261265	-0.5342931863197958	-0.2126510736397588	1.5607795246141456	-0.5672329652879724	-0.18486401364649874	1.5788838200339266	-0.5809611264323458	-0.2040526680381949	1.9896383718581094	-0.525013273323912	-0.22251265009729074	2.05468885657961	-0.5144224311954919	-0.21627185386071193	1.9878733330684426	-0.43371218623998586	-0.22035763032857988	1.9085721250647671	-0.37561785133964	-0.2308763766269911	1.8351472954290233	-0.3278276288456409	-0.1893495899619508	1.9936554548483776	-0.6164156567517596	-0.186315063965096	1.9114827546278947	-0.6436267676185337	-0.20894996590819415	1.8373048198427209	-0.6063949142737063
85	2.8333333333333335	-0.21279528043550727	1.8375968700098169	-0.4808530935781673	-0.2183050418696811	1.8357031508231028	-0.4203927749120737	-0.21248689904593404	1.7098165037042536	-0.41889227951476204	-0.20145464197178334	1.5883708230229407	-0.4166524117961497	-0.228245363876865	1.55918701055494	-0.3883981766837946	-0.22447888149520445	1.575521952747953	-0.3848994855059351	-0.20192984191822988	1.577112208645971	-0.43279314684487347	-0.2069812203707703	1.8373533457535967	-0.5355177945944603	-0.2114480398720961	1.7130372159124228	-0.5153797946628614	-0.1977416630317273	1.5890262288251404	-0.5244632081821521	-0.21993928426672665	1.5568008714777033	-0.49291778387349133	-0.21403392049512515	1.5600123623622135	-0.5259932854210068	-0.19020084853764374	1.5794732824273467	-0.5311335138778018	-0.20506777585544853	1.989378207593053	-0.5194792233034687	-0.22460337031455851	2.0532884300565946	-0.5037956649226291	-0.2161208208015668	1.9874978515332833	-0.424995910970345	-0.22177535719281483	1.9079928107640258	-0.36429147034745746	-0.2317417228771262	1.8354173185195284	-0.3221566041217597	-0.19065235589066262	1.9909755638113198	-0.6104787251475768	-0.1909089369806849	1.905683043629511	-0.6293888327192501	-0.20731180637876137	1.8326795333139527	-0.5819647630575053
86	2.8666666666666667	-0.21463388467453584	1.8384044177413332	-0.47004010337469415	-0.22124110528091945	1.8368458085757415	-0.41288655099280286	-0.21111918368872407	1.7095315705771899	-0.41588840536641114	-0.20124494299447918	1.5876674184961843	-0.41704148530799573	-0.228245363876865	1.55918701055494	-0.3883981766837946	-0.22447888149520445	1.575521952747953	-0.3848994855059351	-0.1983450240325687	1.5763578923647643	-0.43246234079996515	-0.2082357504285683	1.8386173190482786	-0.5299527016011645	-0.20874103280407705	1.7093411998800923	-0.5044081528744256	-0.19826399841462763	1.582200690880049	-0.5050325464932096	-0.22434994038057757	1.5478201359620798	-0.46421197851325363	-0.2183978482879479	1.5487908935687837	-0.49291890065392036	-0.18875655391051896	1.5726644932464977	-0.5050159206999698	-0.20231959648645673	1.9889968734935868	-0.509937670317033	-0.2246460948251647	2.05291946199385	-0.495341698611632	-0.2141665413931171	1.9850277059604982	-0.4179025957055652	-0.2210563438902026	1.9081214669253472	-0.3612472612565902	-0.23375709165287797	1.8343122652717692	-0.31973398062245006	-0.1918756254415468	1.9920750464819126	-0.6053581413165966	-0.19371267290355326	1.902923902839859	-0.618216978543293	-0.2111119993599876	1.8282253891874896	-0.5734662437686089
87	2.9	-0.21678883519410042	1.8371636219395984	-0.46747205539615266	-0.22225765215167415	1.8341970630836892	-0.40691501454806517	-0.21032456675884978	1.7084917177652996	-0.41220568189591134	-0.20124606648797488	1.5874657903462301	-0.4168828353290851	-0.228245363876865	1.55918701055494	-0.3883981766837946	-0.22447888149520445	1.575521952747953	-0.3848994855059351	-0.19857201532177435	1.5748810826128479	-0.43177149234678225	-0.21031268586083846	1.8386295101420973	-0.5276809571405306	-0.20674544841743064	1.7094212854193012	-0.49785736568795735	-0.19695834662088826	1.5805772879590057	-0.501985540525991	-0.22365469548855965	1.5489246117779203	-0.4611172638194575	-0.21823508370032044	1.5471807503748862	-0.49336382101319937	-0.18759684084644074	1.572186473602537	-0.5018264234007754	-0.2032279172143077	1.9876192935864567	-0.5039886015522832	-0.2236593589774742	2.0515254143650234	-0.49158519921144117	-0.2121271927217883	1.985914928571035	-0.41139053090173283	-0.22088540978189736	1.9028581736043761	-0.359947980150299	-0.2328156887288093	1.8290618726847023	-0.3244691892779552	-0.1930676782382208	1.9919467041074361	-0.6000019138052867	-0.1926280039606313	1.9066656887226148	-0.6154049346547872	-0.21003345178491847	1.8365239361488097	-0.5800273491510528
88	2.933333333333333	-0.21774834614811991	1.8368641436124469	-0.4620543303180433	-0.22230394193805694	1.8341301939679753	-0.40676189230377474	-0.21022453551546108	1.71026405995334	-0.41259119911447445	-0.2031231835867369	1.587009335281449	-0.4147354649281196	-0.228245363876865	1.55918701055494	-0.3883981766837946	-0.22447888149520445	1.575521952747953	-0.3848994855059351	-0.2006631165479634	1.5754957318904617	-0.429653306443103	-0.2122576008668796	1.8383468064095618	-0.5253815469732463	-0.20385462354753078	1.7086042889086	-0.5052493367644635	-0.19604531008043435	1.5811600333614528	-0.5074482252778255	-0.22157160589790395	1.5485347436166086	-0.46369749431297747	-0.21593964712047894	1.5490537271255636	-0.496327696654291	-0.18848080811479173	1.5741115538108499	-0.5057116909394523	-0.2032767638810207	1.9876492665130367	-0.503860311619545	-0.22359073020076045	2.0538953071174033	-0.49203431729445485	-0.21400786753398202	1.985926127167197	-0.40928556599658733	-0.2228105299857151	1.904166865094837	-0.3582808835932472	-0.23101695361703128	1.832966920648761	-0.3362151925030814	-0.19204575060653814	1.9917119966350434	-0.5964628400088005	-0.19371192661252573	1.9051406028006066	-0.6097467645392021	-0.20961092903306905	1.832325560087608	-0.5796188156387239
89	2.966666666666667	-0.2153609290896861	1.8380172579303864	-0.4644318527178651	-0.22382683857984675	1.8362535288764386	-0.4051657582580849	-0.2128757110897644	1.7113689126635083	-0.4140433751752782	-0.20320224815710444	1.5871755232439135	-0.41469136759474506	-0.228245363876865	1.55918701055494	-0.3883981766837946	-0.22447888149520445	1.575521952747953	-0.3848994855059351	-0.2004184547829534	1.576395121867422	-0.43007459790929053	-0.20665244689123338	1.840702586223449	-0.5270727490433749	-0.20176618356074003	1.7121707396194459	-0.5123711005407938	-0.19704261703822135	1.5837156167937052	-0.5023564987062944	-0.2237895015206104	1.5498965375040905	-0.46135075957315275	-0.2161989222516572	1.5504605454961955	-0.4959933153342807	-0.18754854161534967	1.5742174350905556	-0.5023737011165922	-0.2044032090732999	1.988811269141039	-0.49902643549982	-0.22359084155330372	2.0551354956423347	-0.49263867919018234	-0.21607379066002166	1.984943175581389	-0.40689247896400654	-0.22399261200285897	1.9016137525981545	-0.3608428333823482	-0.2312312997513215	1.826753456235173	-0.3441075672370957	-0.19217953380056432	1.9905427990726268	-0.5965146600494604	-0.19084176780807424	1.9026339698476236	-0.6083009966258207	-0.2076175735125754	1.8271580272059824	-0.5811352785628756
